# xmcd
# 
# Track frame offsets:
#     150
#     15913
#     35883
#     53673
#     71628
#     94720
#     109425
#     138833
#     153252
#     172753
#     194762
# 
# Disc length: 2975
# 
# Revision: 0
# Processed by: cddbd v1.5.2PL0 Copyright (c) Steve Scherf et al.
# Submitted via: BonkEnc v1.0.15
# 
DISCID=8e0b9d0b
DTITLE=Engerling - Egoland
DYEAR=1990
DGENRE=Blues
TTITLE0=Es kommen andere Zeiten
TTITLE1=Narzisse
TTITLE2=Schwarze Polster
TTITLE3=Häng dich in den Wind
TTITLE4=Legoland
TTITLE5=Herbstlied
TTITLE6=Grüne Insel
TTITLE7=3 x darfst du raten
TTITLE8=Fahrradlied
TTITLE9=Spiel der Fliegen
TTITLE10=Es kommen andere Zeiten (extended Version)
EXTD=
EXTT0=
EXTT1=
EXTT2=
EXTT3=
EXTT4=
EXTT5=
EXTT6=
EXTT7=
EXTT8=
EXTT9=
EXTT10=
PLAYORDER=
